{"asset":{"generator":"Dash glTF Exporter","version":"2.0"},"scene":0,"scenes":[{"nodes":[0]}],"nodes":[{"mesh":0}],"meshes":[{"name":"hokkoro","primitives":[{"attributes":{"POSITION":0,"TEXCOORD_0":1},"indices":2,"mode":4,"material":0},{"attributes":{"POSITION":0,"TEXCOORD_0":1},"indices":3,"mode":4,"material":0},{"attributes":{"POSITION":0,"TEXCOORD_0":1},"indices":4,"mode":4,"material":0},{"attributes":{"POSITION":0,"TEXCOORD_0":1},"indices":5,"mode":4,"material":0},{"attributes":{"POSITION":0,"TEXCOORD_0":1},"indices":6,"mode":4,"material":0}]}],"accessors":[{"bufferView":0,"byteOffset":0,"componentType":5126,"count":266,"type":"VEC3","min":[-4.510000,-5.000000,-4.510000],"max":[4.510000,7.500000,4.510000]},{"bufferView":1,"byteOffset":0,"componentType":5126,"count":266,"type":"VEC2"},{"bufferView":2,"byteOffset":0,"componentType":5123,"count":186,"type":"SCALAR"},{"bufferView":2,"byteOffset":372,"componentType":5123,"count":72,"type":"SCALAR"},{"bufferView":2,"byteOffset":516,"componentType":5123,"count":72,"type":"SCALAR"},{"bufferView":2,"byteOffset":660,"componentType":5123,"count":72,"type":"SCALAR"},{"bufferView":2,"byteOffset":804,"componentType":5123,"count":72,"type":"SCALAR"}],"materials":[{"pbrMetallicRoughness":{"baseColorTexture":{"index":0},"metallicFactor":0.0},"emissiveFactor":[0.0,0.0,0.0],"name":"EM0300.TIM"}],"textures":[{"source":0}],"images":[{"uri":"data:image/png;base64,"}],"bufferViews":[{"buffer":0,"byteOffset":0,"byteLength":5312,"byteStride":20},{"buffer":0,"byteOffset":12,"byteLength":5308,"byteStride":20},{"buffer":0,"byteOffset":5320,"byteLength":948}],"buffers":[{"byteLength":6268,"uri":"data:application/octet-stream;base64,"}]}